<svg xmlns="http://www.w3.org/2000/svg" xmlns:xlink="http://www.w3.org/1999/xlink" width="22.074" height="22.074" viewBox="0 0 22.074 22.074">
  <defs>
    <clipPath id="clip-path">
      <rect width="22.074" height="22.074" fill="none"/>
    </clipPath>
  </defs>
  <g id="Repeat_Grid_7" data-name="Repeat Grid 7" clip-path="url(#clip-path)">
    <g transform="translate(-1488.108 -56)">
      <path id="svgexport-3" d="M2.541,4.748A2.207,2.207,0,1,1,4.748,2.541,2.207,2.207,0,0,1,2.541,4.748Zm8.83,0a2.207,2.207,0,1,1,2.207-2.207A2.207,2.207,0,0,1,11.371,4.748Zm8.83,0a2.207,2.207,0,1,1,2.207-2.207A2.208,2.208,0,0,1,20.2,4.748Zm-17.66,8.83a2.207,2.207,0,1,1,2.207-2.207A2.207,2.207,0,0,1,2.541,13.578Zm8.83,0a2.207,2.207,0,1,1,2.207-2.207A2.207,2.207,0,0,1,11.371,13.578Zm8.83,0a2.207,2.207,0,1,1,2.207-2.207A2.208,2.208,0,0,1,20.2,13.578ZM.333,20.2a2.207,2.207,0,1,0,2.207-2.207A2.208,2.208,0,0,0,.333,20.2Zm8.83,0a2.207,2.207,0,1,0,2.207-2.207A2.208,2.208,0,0,0,9.163,20.2Zm8.83,0A2.207,2.207,0,1,0,20.2,17.993,2.208,2.208,0,0,0,17.993,20.2Z" transform="translate(1487.775 55.667)" fill="#30aaf2" fill-rule="evenodd"/>
    </g>
  </g>
</svg>
