<svg xmlns="http://www.w3.org/2000/svg" xmlns:xlink="http://www.w3.org/1999/xlink" width="147.58" height="126.774" viewBox="0 0 147.58 126.774">
  <defs>
    <clipPath id="clip-path">
      <path id="Path_765" data-name="Path 765" d="M656.359,270.3c13.982-10.192,29.513-8.1,32.907-7.551,3.593.578,24.521,7.736,30.666,21.488,4.411,9.872-2.369,14.753,1.947,24.7,5.48,12.634,19.01,10.743,23.63,20.789,5.859,12.74-6.68,35.829-25.229,44.849-25.526,12.412-60.04-2.983-62.277-16.8-1.143-7.058,2.915-9.23,1.917-18.071-1.421-12.565-14.271-14.067-18.8-27.433C636.737,299.316,644.509,278.933,656.359,270.3Z" transform="translate(-639.884 -262.195)" fill="none"/>
    </clipPath>
  </defs>
  <g id="Group_447" data-name="Group 447" transform="translate(-624.679 -279.195)">
    <circle id="Ellipse_31" data-name="Ellipse 31" cx="56.88" cy="56.88" r="56.88" transform="translate(624.679 292.208)" fill="rgba(15, 23, 39,0.04)"/>
    <g id="Group_569" data-name="Group 569" transform="translate(641.714 279.195)">
      <g id="Group_446" data-name="Group 446">
        <g id="Group_410" data-name="Group 410" transform="translate(0.085 0.074)">
          <path id="Path_754" data-name="Path 754" d="M656.389,270.332c13.961-10.178,29.472-8.087,32.86-7.542,3.588.578,24.485,7.726,30.622,21.46,4.405,9.858-2.366,14.732,1.944,24.665,5.472,12.616,18.983,10.728,23.6,20.758,5.851,12.722-6.67,35.779-25.194,44.786-25.489,12.4-59.954-2.978-62.189-16.78-1.14-7.049,2.912-9.218,1.915-18.045-1.419-12.547-14.25-14.048-18.771-27.394C636.8,299.309,644.555,278.957,656.389,270.332Z" transform="translate(-639.937 -262.241)" fill="#1c8bbf"/>
        </g>
        <g id="Group_427" data-name="Group 427">
          <g id="Group_426" data-name="Group 426" clip-path="url(#clip-path)">
            <g id="Group_425" data-name="Group 425" transform="translate(-21.311 20.64)">
              <g id="Group_423" data-name="Group 423">
                <g id="Group_411" data-name="Group 411" transform="translate(0 32.352)">
                  <path id="Path_755" data-name="Path 755" d="M705.983,339.637c-8.335-2.475-16.457-2.08-20.458-4.62-3.673-2.332-2.776-8.714-1.541-11.7.233-.562,3.342-8.884,3.342-8.884l-22.4-19.223s-2.339,20.569-10.179,31.7c-8.524,12.1-28.136,14.289-28.136,14.289v11.4l92.664,7.691C717.751,350.157,712.142,341.466,705.983,339.637Z" transform="translate(-626.609 -295.206)" fill="#fff"/>
                </g>
                <g id="Group_418" data-name="Group 418" transform="translate(37.148)">
                  <g id="Group_412" data-name="Group 412">
                    <path id="Path_756" data-name="Path 756" d="M699.228,315.617a11.707,11.707,0,0,0-2.183-2.227s1.949-2.759,1.178-3.538a12.014,12.014,0,0,1-1.616-2.626,3.215,3.215,0,0,1,.713-3.084,2.644,2.644,0,0,0,.52-.372c2.341-2.215,3.5-4.891,2.65-5.633-.889-.771-6.819-.987-11.534-7.243-2.146-2.848-2.538-10.033-7.426-15.672-.051-.006-.1-.011-.152-.019-18.92-2.485-8.181,26.632-31.628,31.406a95.8,95.8,0,0,0,11.887,19.649,4.392,4.392,0,0,0,2.758,1.608c16.1,2.615,31.717,4.654,33.385.5.729-1.816-.037-6.135.3-8.288C698.316,318.534,699.642,316.422,699.228,315.617Z" transform="translate(-649.75 -275.052)" fill="#fff"/>
                  </g>
                  <g id="Group_413" data-name="Group 413" transform="translate(39.016 26.631)">
                    <path id="Path_757" data-name="Path 757" d="M675.484,291.645c-.509-.095-1.926,1.9-1.25,3.291.807,1.665,3.989,1.225,4.081.856.053-.212-.917-.3-1.711-1.25C675.516,293.244,675.913,291.724,675.484,291.645Z" transform="translate(-674.054 -291.642)" fill="#cad2ec"/>
                  </g>
                  <g id="Group_414" data-name="Group 414" transform="translate(37.493 17.469)">
                    <path id="Path_758" data-name="Path 758" d="M673.116,286.717a.672.672,0,0,1,1.124-.6c1.965,1.841,5.331,5.052,5.493,5.591.23.766-3.6,2.3-3.368,4.439s-.637,3.138-1.478,2.3.714-3.443-.433-6.428A29.184,29.184,0,0,1,673.116,286.717Z" transform="translate(-673.106 -285.935)" fill="#cad2ec"/>
                  </g>
                  <g id="Group_417" data-name="Group 417" transform="translate(42.259 34.8)">
                    <g id="Group_415" data-name="Group 415">
                      <path id="Path_759" data-name="Path 759" d="M683.344,302.945c-6.707.7-7.269-1.164-7.269-1.164.962-.292,6.214-5.05,6.214-5.05s1.088.453-1.178,3.538h0a7.444,7.444,0,0,1,1.856,1.3,1.686,1.686,0,0,1,.377,1.381Z" transform="translate(-676.075 -296.731)" fill="#b3221c"/>
                    </g>
                    <g id="Group_416" data-name="Group 416">
                      <path id="Path_760" data-name="Path 760" d="M683.344,302.945c-6.707.7-7.269-1.164-7.269-1.164.962-.292,6.214-5.05,6.214-5.05s1.088.453-1.178,3.538h0a7.444,7.444,0,0,1,1.856,1.3,1.686,1.686,0,0,1,.377,1.381Z" transform="translate(-676.075 -296.731)" fill="#cad2ec"/>
                    </g>
                  </g>
                </g>
                <g id="Group_419" data-name="Group 419" transform="translate(32.516 21.636)">
                  <ellipse id="Ellipse_32" data-name="Ellipse 32" cx="5.791" cy="8.564" rx="5.791" ry="8.564" transform="translate(0 9.383) rotate(-54.106)" fill="#fff"/>
                </g>
                <g id="Group_420" data-name="Group 420" transform="translate(35.125 6.809)">
                  <path id="Path_761" data-name="Path 761" d="M663.835,329.833a15.786,15.786,0,0,0,7.28,2.132c.5-1.308,1.368-3.633,2.04-5.428,12.948,1.885,24,2.718,25.388-.738a5.234,5.234,0,0,0,.287-1.506c-5.522-5.691-20.374-13.886-20.422-25.5-.008-2.1.47-3.312,0-6.123a22.359,22.359,0,0,0-7.991-13.375c-2.814,6.042-4.021,14.74-10.315,20.23-.161-.128-.321-.258-.491-.382-3.832-2.772-8.458-2.92-10.333-.329-1.612,2.227-.663,5.747,2.066,8.453-.385,2.517-.716,4.371-1.795,9.094C649.187,317.943,653.407,323.875,663.835,329.833Z" transform="translate(-648.49 -279.294)" fill="#cad2ec"/>
                </g>
                <g id="Group_421" data-name="Group 421" transform="translate(81.056 26.618)">
                  <path id="Path_762" data-name="Path 762" d="M678.706,294.5l-1.6-.059a2.837,2.837,0,0,1,2.634-2.8l.124,1.6-.063-.8.071.8A1.236,1.236,0,0,0,678.706,294.5Z" transform="translate(-677.102 -291.634)" fill="#5c71b4"/>
                </g>
                <g id="Group_422" data-name="Group 422" transform="translate(45.841 41.581)">
                  <path id="Path_763" data-name="Path 763" d="M673.865,315.3c-.714-.095-17.527-2.464-18.7-14.186l1.6-.159c1.047,10.457,17.153,12.732,17.315,12.752Z" transform="translate(-655.165 -300.955)" fill="#5c71b4"/>
                </g>
              </g>
              <g id="Group_424" data-name="Group 424" transform="translate(36.58 34.149)">
                <path id="Path_764" data-name="Path 764" d="M655.064,300.911c-2.88-.337-5.556-3.408-5.668-3.538l1.215-1.048c.024.027,2.384,2.727,4.639,2.992Z" transform="translate(-649.396 -296.325)" fill="#5c71b4"/>
              </g>
            </g>
          </g>
        </g>
        <g id="Group_444" data-name="Group 444" transform="translate(61.253 48.776)">
          <g id="Group_428" data-name="Group 428" transform="translate(26.273 14.848)">
            <path id="Path_766" data-name="Path 766" d="M695.468,311.65s-2.951-7.813.992-9.778c1.218-.607,2.74,5.352,2.74,5.352Z" transform="translate(-694.407 -301.829)" fill="#cad2ec"/>
          </g>
          <g id="Group_429" data-name="Group 429" transform="translate(28.976 24.536)">
            <path id="Path_767" data-name="Path 767" d="M696.571,325.8s-1.252-13.21.289-16.679,18.74,1.117,21.683,3.145-2.589,18.923-2.589,18.923Z" transform="translate(-696.091 -307.864)" fill="#cad2ec"/>
          </g>
          <g id="Group_430" data-name="Group 430" transform="translate(36.831 18.132)">
            <path id="Path_768" data-name="Path 768" d="M715.651,328.265s-4.386-4.118-5.384-7.686a13.005,13.005,0,0,1,.483-7.32l-4-2.857s-4.373-.848-5.517-3.713c-.915-2.289.684-3.752,4.508-2.117,2.811,1.2,11.64,4.28,12.619,5.753s8.813,9.237,13.266,20.894C731.629,331.218,724.334,337.277,715.651,328.265Z" transform="translate(-700.984 -303.874)" fill="#cad2ec"/>
          </g>
          <g id="Group_431" data-name="Group 431" transform="translate(44.365 26.341)">
            <path id="Path_769" data-name="Path 769" d="M711.406,319.376c-6.479-4.819-5.72-10.163-5.683-10.388l1.584.246c-.026.186-.6,4.646,5.055,8.855Z" transform="translate(-705.678 -308.988)" fill="#5c71b4"/>
          </g>
          <g id="Group_432" data-name="Group 432" transform="translate(54.521 42.979)">
            <path id="Path_770" data-name="Path 770" d="M712.285,331.886s1.637,3.015,4.32,3.8,12.255-13.642,9.76-15.135S709.861,316.278,712.285,331.886Z" transform="translate(-712.004 -319.353)" fill="#cad2ec"/>
          </g>
          <g id="Group_433" data-name="Group 433" transform="translate(42.094 23.034)">
            <path id="Path_771" data-name="Path 771" d="M705.274,309.18l-1.008-1.252.5.626-.507-.623a1.346,1.346,0,0,0,.485-.676l1.572-.327A2.617,2.617,0,0,1,705.274,309.18Z" transform="translate(-704.263 -306.928)" fill="#5c71b4"/>
          </g>
          <g id="Group_436" data-name="Group 436">
            <g id="Group_434" data-name="Group 434" transform="translate(5.592 3.29)">
              <rect id="Rectangle_164" data-name="Rectangle 164" width="1.912" height="49.067" transform="translate(0 1.661) rotate(-60.31)" fill="#fff"/>
            </g>
            <g id="Group_435" data-name="Group 435">
              <path id="Path_772" data-name="Path 772" d="M684.053,297.77s-1.568-.945-2.5-1.358c-1.345-.592-4.413-2.1-3.249-3.495s4.347,1.833,6.8,3.247Z" transform="translate(-678.041 -292.579)" fill="#f29b90"/>
            </g>
          </g>
          <g id="Group_437" data-name="Group 437" transform="translate(23.778 23.672)">
            <path id="Path_773" data-name="Path 773" d="M725.542,340.707s-32.422-11.56-32.682-16.416,7.964-17.906,10.438-16.912,3.214,2.727-.97,13.422c0,0,23.185-.106,25.665,9.951S725.542,340.707,725.542,340.707Z" transform="translate(-692.853 -307.326)" fill="#cad2ec"/>
          </g>
          <g id="Group_438" data-name="Group 438" transform="translate(23.857 18.304)">
            <path id="Path_774" data-name="Path 774" d="M694.666,324.463a7.273,7.273,0,0,1-1.319-7.11c1.512-4.008,7.651-13.183,10.131-13.366S707.67,307.979,694.666,324.463Z" transform="translate(-692.903 -303.981)" fill="#cad2ec"/>
          </g>
          <g id="Group_439" data-name="Group 439" transform="translate(24.036 17.754)">
            <path id="Path_775" data-name="Path 775" d="M694.313,319.316a6.411,6.411,0,0,1-1.044-5.533c.944-3.074,4.927-10.052,6.609-10.142S702.81,306.819,694.313,319.316Z" transform="translate(-693.014 -303.639)" fill="#cad2ec"/>
          </g>
          <g id="Group_440" data-name="Group 440" transform="translate(24.073 25.654)">
            <path id="Path_776" data-name="Path 776" d="M725.315,327.523c-6.171-8.465-23.461-5.684-23.635-5.657l-1.771.3.962-1.517c3.544-5.6,2.886-8.214,2.177-9.272a2.64,2.64,0,0,0-2.02-1.2c-.681.43-3.991,5.562-6.6,10.051l-1.387-.809c4.053-6.959,6.632-10.6,7.664-10.813a4.01,4.01,0,0,1,3.639,1.82c1.074,1.547,1.653,4.451-1.252,9.645,4.7-.514,17.907-1.19,23.522,6.514Z" transform="translate(-693.037 -308.56)" fill="#5c71b4"/>
          </g>
          <g id="Group_441" data-name="Group 441" transform="translate(23.632 19.314)">
            <rect id="Rectangle_165" data-name="Rectangle 165" width="14.262" height="1.605" transform="translate(0 11.922) rotate(-56.713)" fill="#5c71b4"/>
          </g>
          <g id="Group_442" data-name="Group 442" transform="translate(33.139 23.876)">
            <rect id="Rectangle_166" data-name="Rectangle 166" width="2.794" height="1.605" transform="translate(0 2.429) rotate(-60.38)" fill="#5c71b4"/>
          </g>
          <g id="Group_443" data-name="Group 443" transform="translate(25.998 18.407)">
            <rect id="Rectangle_167" data-name="Rectangle 167" width="4.838" height="1.606" transform="translate(0 4.019) rotate(-56.186)" fill="#5c71b4"/>
          </g>
        </g>
        <g id="Group_445" data-name="Group 445" transform="translate(55.531 46.843)">
          <path id="Path_777" data-name="Path 777" d="M678.263,296.557a4.377,4.377,0,0,1-3.416-2.023,3.846,3.846,0,0,1-.04-3.159l1.459.668-.73-.334.732.331a2.233,2.233,0,0,0,0,1.748,2.94,2.94,0,0,0,2.255,1.186Z" transform="translate(-674.477 -291.375)" fill="#5c71b4"/>
        </g>
      </g>
    </g>
  </g>
</svg>
