<svg xmlns="http://www.w3.org/2000/svg" width="23" height="23" viewBox="0 0 23 23">
  <path id="idioma" d="M12,1A11,11,0,1,0,23,12,10.968,10.968,0,0,0,12,1Zm8,11a6.448,6.448,0,0,1-.3,2,16.738,16.738,0,0,0-3-4.7l1.8-1.8A7.177,7.177,0,0,1,20,12ZM6.5,6.5c1.3,0,3.6.8,6,2.9L9.3,12.6C7.1,9.8,6.5,7.5,6.5,6.5Zm8.1,5c2.3,2.7,2.9,5,2.9,6-1.3,0-3.6-.8-6-2.9Zm1.9-6.1L14.6,7.3a16.738,16.738,0,0,0-4.7-3,6.929,6.929,0,0,1,2-.3A7.837,7.837,0,0,1,16.5,5.4ZM4,12a6.448,6.448,0,0,1,.3-2,16.738,16.738,0,0,0,3,4.7L5.5,16.5A7.177,7.177,0,0,1,4,12Zm3.5,6.6,1.9-1.9a16.738,16.738,0,0,0,4.7,3,6.929,6.929,0,0,1-2,.3,7.837,7.837,0,0,1-4.6-1.4Z" transform="translate(-0.5 -0.5)" fill="#30aaf2" stroke="#fff" stroke-width="1"/>
</svg>
