<svg xmlns="http://www.w3.org/2000/svg" width="139.74" height="114.263" viewBox="0 0 139.74 114.263">
  <g id="Group_570" data-name="Group 570" transform="translate(-494.5 -2303.5)">
    <circle id="Ellipse_30" data-name="Ellipse 30" cx="57.131" cy="57.131" r="57.131" transform="translate(506.457 2303.5)" fill="rgba(15, 23, 39,0.04)"/>
    <g id="Group_408" data-name="Group 408" transform="translate(494.5 2307.625)">
      <g id="Group_398" data-name="Group 398" transform="translate(61.666)">
        <path id="Path_735" data-name="Path 735" d="M1017.317,191.05c-1.19-2.088-5.908-11.411-7.533-13.27a30.252,30.252,0,0,0-4.65,2.178c-1.579.806-5.582.216-8.378.461a29.221,29.221,0,0,0-7.778,1.574c-2.114.925-6.517,2.9-6.8,3.176-1.89.687-3.5,2.51-3.181,4.4.256,1.511,11.1,13.458,13.962,15.933,1.39,1.2,7.712,8.009,8.944,7.435,1.746-.813,6.711-1.627,11.05-5.542,3.365-3.034,6.277-6.364,9.368-8.905C1022.559,198.3,1018.792,193.279,1017.317,191.05Z" transform="translate(-978.955 -143.764)" fill="#ec7565"/>
        <path id="Path_736" data-name="Path 736" d="M1011.062,202.742c.863.372,7.449-2.5,7.451-4.266,0-1.854-13.979-22.407-16.14-23.418-.871-.406-7.673,4.657-7.934,5.489C994.138,181.5,1010.215,202.376,1011.062,202.742Z" transform="translate(-969.475 -145.438)" fill="#fff"/>
        <path id="Path_737" data-name="Path 737" d="M1041.853,156.679c-2.438,1.345-26.238,17.47-30.65,20.147-2.167,1.314-4.355,2.593-6.549,3.857-2.235,1.288-4.65,2.411-6.762,3.892a.29.29,0,0,0-.327.414c4.06,8.225,10.2,15.538,16.059,22.528q1.045,1.248,2.1,2.49a11.824,11.824,0,0,0,1.982,2.225c1.3.887,3.246-.385,4.473-.9,3.991-1.678,7.315-4.205,10.977-6.514a97.489,97.489,0,0,0,10.972-7.694,152.609,152.609,0,0,0,1.517-23.159C1045.515,165.413,1045.047,159.454,1041.853,156.679Z" transform="translate(-967.579 -156.679)" fill="#1c8bbf"/>
      </g>
      <g id="Group_400" data-name="Group 400" transform="translate(0 2.859)">
        <g id="Group_399" data-name="Group 399" transform="translate(28.443 29.521)">
          <path id="Path_738" data-name="Path 738" d="M1022.3,210.4q-7.13-7.5-14.263-14.99-1.722-1.809-3.443-3.62l-1.822-1.917c-.789-.829-1.474-1.267-1.1-2.5.473-1.561.595-3.081-.627-4.174a.385.385,0,0,0,.036-.464c-2.809-4.771-8.82-3.046-13.033-1.65-3.283,1.088-6.348,1.57-9.679.339a54.806,54.806,0,0,1-9.105-4.619.348.348,0,0,0-.469.123c-.064.123-.129.243-.193.364a.29.29,0,0,0-.082.094c-.161.31-.319.619-.477.93a.36.36,0,0,0-.116.139c-1.508,3.044-3.026,6.077-4.632,9.07s-3.451,5.872-4.908,8.925a.236.236,0,0,0,.335.311.278.278,0,0,0,.124.274q1.9,1.19,3.809,2.367a85.806,85.806,0,0,1,11.6,9.582,160.954,160.954,0,0,0,12.2,11.093c1.951,1.64,3.889,3.3,5.906,4.858a22.489,22.489,0,0,0,5.616,3.468,5.232,5.232,0,0,0,4.42-.661c1.12-.792,2.259-1.617,1.781-2.77,2.875.769,6.032-1.225,5.8-4.223,1.9.534,3.826.576,5.25-.908a4.02,4.02,0,0,0,.687-4.369c2.178,1.583,6.57.222,7.532-2.441C1023.787,212.054,1023.092,211.143,1022.3,210.4Z" transform="translate(-958.349 -176.761)" fill="#f6b0a1"/>
          <path id="Path_739" data-name="Path 739" d="M997.827,203.85A57.459,57.459,0,0,0,992.8,199.2a49.909,49.909,0,0,0-4.768-4.11c-.032-.023-.061.024-.039.052a53.262,53.262,0,0,0,4.9,4.773,54.614,54.614,0,0,0,4.689,4.252C997.775,204.306,997.969,204.011,997.827,203.85Z" transform="translate(-940.198 -165.542)" fill="#ec7565"/>
          <path id="Path_740" data-name="Path 740" d="M993.995,206.673c-1.43-1.38-3.146-2.507-4.7-3.754-1.566-1.261-3.086-2.577-4.652-3.836-.058-.047-.135.027-.082.082,1.451,1.512,3.015,2.9,4.6,4.268a32.818,32.818,0,0,0,4.565,3.578A.216.216,0,0,0,993.995,206.673Z" transform="translate(-942.306 -163.101)" fill="#ec7565"/>
          <path id="Path_741" data-name="Path 741" d="M989.512,208.98a28.3,28.3,0,0,0-3.157-2.725c-1.043-.924-2.075-1.865-3.105-2.8a.037.037,0,0,0-.053.052,26.875,26.875,0,0,0,2.978,3.242,13.4,13.4,0,0,0,3.138,2.493A.166.166,0,0,0,989.512,208.98Z" transform="translate(-943.139 -160.423)" fill="#ec7565"/>
        </g>
        <path id="Path_742" data-name="Path 742" d="M977.638,180.193c-.309-.79-7.073-5.224-7.86-4.766-1.954,1.138-13.553,22.127-13.415,23.929.132,1.716,6.532,4.037,7.314,3.615S977.99,181.1,977.638,180.193Z" transform="translate(-931.123 -148.077)" fill="#fff"/>
        <path id="Path_743" data-name="Path 743" d="M981.084,182.783a16.619,16.619,0,0,0-1.935-1.33c-1.061-.667-2.214-1.174-3.263-1.859l-6.1-3.991c-4.071-2.659-22.112-14.124-26.988-17.151-.565.693-2.107,10.793-2.085,20.429a103.245,103.245,0,0,0,1.664,17.743c3.36,3.186,17.741,12.277,22.294,15.313.135.092.271.226.432.2.469-.084,1.39-2.4,1.586-2.791.682-1.361,1.337-2.735,1.995-4.107,1.288-2.688,2.584-5.376,4.091-7.952q1.983-3.393,4.213-6.638c1.438-2.1,3.415-4.1,4.647-6.3a.939.939,0,0,0,.058-.887A2.661,2.661,0,0,0,981.084,182.783Z" transform="translate(-940.709 -158.452)" fill="#1c8bbf"/>
      </g>
      <g id="Group_407" data-name="Group 407" transform="translate(39.968 37.247)">
        <g id="Group_401" data-name="Group 401" transform="translate(18.557)">
          <path id="Path_744" data-name="Path 744" d="M993.5,179.816c-2.494.587-9.236,3.034-10.554,4.452a29.16,29.16,0,0,0-3.667,4.892c-.455.795-.871,1.609-1.274,2.427a6.623,6.623,0,0,0-.993,2.375c-.074,2.949,3.546,2.194,5.042,1.164,1.688-1.159,3.4-3.438,4.632-4.839,1.254-1.427,3.586-1.87,5.006-2.246,1.754-.463,3.333-.718,3.354-.787,1.464-.916,1.873-2.328,2.526-3.665C998.149,182.4,995.177,179.419,993.5,179.816Z" transform="translate(-977.006 -179.78)" fill="#ec7565"/>
          <path id="Path_745" data-name="Path 745" d="M983.259,186.239c-.6-.048-1.208-.082-1.811-.142a10.45,10.45,0,0,0-2.282.008c-.485.887-2.768,4.157-.166,4.252a4.917,4.917,0,0,0,3.229-1.932C983.093,187.39,983.451,186.253,983.259,186.239Z" transform="translate(-976.534 -175.946)" fill="#e75c64"/>
        </g>
        <g id="Group_406" data-name="Group 406" transform="translate(0 24.205)">
          <g id="Group_402" data-name="Group 402">
            <path id="Path_746" data-name="Path 746" d="M972.512,197.5c-.616-1.383-2.5-3.086-4.113-2.638a.185.185,0,0,0-.074-.008c-1.833.206-3.091,3.076-2.782,4.716.356,1.89,2.841,3.2,4.647,2.709A3.787,3.787,0,0,0,972.512,197.5Z" transform="translate(-965.497 -194.792)" fill="#ec7565"/>
            <path id="Path_747" data-name="Path 747" d="M967.624,196.385a.489.489,0,0,0-.069-.131c-.287-.351-.771-.053-.935.24a1.856,1.856,0,0,0-.161,1.084,2.289,2.289,0,0,0,1.43,2.078,1.146,1.146,0,1,0,.877-2.117c-.54-.351-.882-.527-1.137-1.143Z" transform="translate(-964.919 -193.993)" fill="#e75c64"/>
          </g>
          <g id="Group_403" data-name="Group 403" transform="translate(5.675 1.724)">
            <path id="Path_748" data-name="Path 748" d="M977.561,196.535c-2.367-1.611-5.1-.081-6.643,1.906-1.814,1.329-2.636,4.163-1.082,5.987,2.012,2.362,5.077.316,6.83-1.243C978.51,201.546,980.221,198.347,977.561,196.535Z" transform="translate(-969.016 -195.861)" fill="#ec7565"/>
            <path id="Path_749" data-name="Path 749" d="M975.31,197.766c-.46-.585-1.3-1.253-1.77-1.122a4.85,4.85,0,0,0-2.352,2.9,1.685,1.685,0,0,0,2.177,1.914c.693-.239,2.573-1.221,2.656-1.809A2.7,2.7,0,0,0,975.31,197.766Z" transform="translate(-967.708 -195.391)" fill="#e75c64"/>
          </g>
          <g id="Group_404" data-name="Group 404" transform="translate(10.441 4.785)">
            <path id="Path_750" data-name="Path 750" d="M981.862,198.271c-2.514-1.64-5.521.99-7.159,3.23-1.909,1.654-3.8,4.607-2.012,6.769,2.268,2.738,6.174-.946,7.762-2.635C982.268,203.7,985.032,200.338,981.862,198.271Z" transform="translate(-971.972 -197.759)" fill="#ec7565"/>
            <path id="Path_751" data-name="Path 751" d="M979.271,199.156a3.607,3.607,0,0,0-1.609-.709c-.371-.061-2.586,1.791-2.738,2.825-.2,1.374,1.4,2.146,2.527,1.7.856-.337,2.981-1.406,2.991-2.451C980.447,199.988,979.673,199.462,979.271,199.156Z" transform="translate(-970.175 -197.34)" fill="#e75c64"/>
          </g>
          <g id="Group_405" data-name="Group 405" transform="translate(16.086 10.427)">
            <path id="Path_752" data-name="Path 752" d="M983.178,208.931a15.354,15.354,0,0,0,1.395-1.907,4.657,4.657,0,0,0,.543-3.846c-1.133-3.143-4.532-1.814-6.349-.332a15.269,15.269,0,0,0-1.7,1.535,6.881,6.881,0,0,0-1.161,1.83,4.584,4.584,0,0,0,.092,4.06c1.577,2.8,5.116,2.767,7.825,2.032.1-.029.792-.322.548-.545-.39-.356-.927-.79-1.3-1.19s-.6-.6-.321-1.1Q982.96,209.2,983.178,208.931Z" transform="translate(-975.473 -201.258)" fill="#ec7565"/>
            <path id="Path_753" data-name="Path 753" d="M980,202.1a5.589,5.589,0,0,0-2.659,2.215c-.517.95.11,1.669,1.106,1.612a4.383,4.383,0,0,0,3.08-1.828C982.184,203.195,979.976,201.89,980,202.1Z" transform="translate(-974.445 -200.758)" fill="#e75c64"/>
          </g>
        </g>
      </g>
    </g>
  </g>
</svg>
