<svg xmlns="http://www.w3.org/2000/svg" width="255.359" height="67.453" viewBox="0 0 255.359 67.453">
  <g id="Group_13" data-name="Group 13" transform="translate(-761)">
    <path id="Path_81" data-name="Path 81" d="M65.847,0H255.359V67.453H65.847ZM168.633,12.848,160.6,16.06h17.667V8.03Zm20.878,4.818V57.817h54.605V9.636H189.511Zm46.576,0H197.542V49.787h38.545Zm-149.361,0H73.877V57.817H86.726V41.757h27.3v16.06H125.27V17.666H114.028V32.121h-27.3Zm48.181,0H133.3V57.817h44.969v-8.03H142.937V40.151h35.332v-8.03H142.937V25.7h35.332v-8.03ZM0,9.636H54.6v8.03H0ZM24.09,57.817V17.666h8.03V57.817Z" transform="translate(761)" fill="#fff" fill-rule="evenodd"/>
  </g>
</svg>
